<svg version="1.1" id="Layer_1" xmlns="http://www.w3.org/2000/svg" xmlns:xlink="http://www.w3.org/1999/xlink" x="0px" y="0px" width="100%" viewBox="0 0 698 486" enable-background="new 0 0 698 486" xml:space="preserve">

<path fill="#6459D1" opacity="1.000000" stroke="none" d="
M169.044617,50.051487 
	C211.319473,33.669777 254.058746,31.691803 297.337341,43.240257 
	C313.275391,47.493168 328.650574,53.604607 342.906647,62.109673 
	C345.964844,63.934162 348.314270,64.023117 351.531464,62.198906 
	C387.950226,41.548809 427.148438,33.285397 468.778351,36.869171 
	C521.532959,41.410633 566.031616,63.411377 602.002380,102.026825 
	C631.955322,134.181900 650.395569,172.409378 654.729919,216.168854 
	C663.259399,302.281738 630.093140,369.303925 558.037781,416.552032 
	C530.479187,434.622742 499.317535,443.864532 466.255157,446.062683 
	C425.838623,448.749756 387.779541,440.704895 352.379395,420.892365 
	C348.645477,418.802582 346.008301,419.033844 342.431824,421.061096 
	C309.262146,439.862274 273.245422,448.802399 235.487503,446.401001 
	C153.332260,441.175964 92.133644,401.372803 57.863945,326.624054 
	C23.677189,252.056152 33.588020,180.070465 82.865204,114.286201 
	C105.049004,84.671158 134.426010,63.989609 169.044617,50.051487 
M259.654266,311.915894 
	C229.254074,216.836212 254.743256,138.413544 330.106781,74.804871 
	C268.626648,39.637981 165.810028,41.796204 99.379875,120.972000 
	C39.945381,191.809906 39.830944,300.046509 108.487198,371.787079 
	C175.381012,441.686035 273.669220,440.693024 331.108978,407.074677 
	C297.982727,382.598572 274.319550,351.090820 259.654266,311.915894 
M447.948120,235.526794 
	C448.920990,306.908020 420.323730,363.973511 364.236206,407.712219 
	C435.192993,446.639709 539.190613,435.493073 600.440613,355.804901 
	C660.611145,277.521088 650.448669,163.278702 572.032898,97.069084 
	C505.705872,41.066418 415.806824,44.477047 364.402588,75.593254 
	C389.788239,94.409561 410.003448,117.507851 424.636932,145.444534 
	C439.267761,173.376160 446.918823,203.075119 447.948120,235.526794 
M385.910553,329.589203 
	C390.667114,334.404541 395.423676,339.219879 400.706940,344.568420 
	C405.456024,335.877808 409.814026,327.902832 413.840302,320.534943 
	C366.821899,273.716949 320.379944,227.472946 273.397491,180.690750 
	C271.332489,188.630142 269.304962,196.774673 267.066467,204.860825 
	C266.165466,208.115448 267.052124,210.273346 269.447723,212.670425 
	C308.165985,251.412735 346.776794,290.262451 385.910553,329.589203 
M403.801605,245.698547 
	C367.698944,209.595917 331.596313,173.493301 294.883026,136.780029 
	C290.114075,145.201660 285.881561,152.675980 281.505768,160.403305 
	C328.431091,206.862015 375.034302,253.001801 422.101929,299.601379 
	C424.047211,291.353973 425.951965,282.995026 428.017731,274.676086 
	C428.727234,271.818726 428.157440,269.826141 425.926697,267.697113 
	C418.575226,260.680878 411.489319,253.386383 403.801605,245.698547 
M385.373962,163.126083 
	C365.169128,142.919373 344.964294,122.712669 324.368134,102.114578 
	C318.181549,108.782661 312.433685,114.977905 306.751709,121.102097 
	C348.399384,162.326294 389.812439,203.318298 431.531158,244.612808 
	C430.499237,233.483246 429.314056,222.121201 428.461884,210.734222 
	C428.166199,206.783600 426.463959,204.059174 423.715698,201.362549 
	C411.000885,188.886566 398.470367,176.222748 385.373962,163.126083 
M348.499451,319.000549 
	C320.387268,291.234192 292.275085,263.467804 263.029663,234.582153 
	C263.969757,246.640823 264.582825,257.682648 265.849487,268.649017 
	C266.191162,271.607239 267.903290,274.943909 270.021851,277.079773 
	C302.267120,309.588470 334.697357,341.913666 367.018433,374.347443 
	C368.399780,375.733521 369.143799,377.754700 370.557678,380.098206 
	C377.643463,372.442322 383.244965,366.390167 389.709015,359.406006 
	C375.811707,345.784271 362.404755,332.643219 348.499451,319.000549 
M353.939850,393.416107 
	C357.296722,391.722931 355.957245,390.139771 354.021545,388.201660 
	C330.114197,364.264404 306.264099,340.269989 282.362579,316.326843 
	C281.371582,315.334106 280.021027,314.700317 277.838684,313.222687 
	C293.443085,348.879150 316.359924,376.603760 347.542603,397.804230 
	C349.520386,396.458832 351.430328,395.159576 353.939850,393.416107 
M368.817780,100.665291 
	C363.831421,96.780663 358.950226,92.750740 353.833374,89.046333 
	C346.624390,83.827271 346.549713,83.930397 340.313477,89.975296 
	C364.896759,114.678040 389.486267,139.387024 413.687134,163.705505 
	C413.017273,153.111572 391.551636,122.457848 368.817780,100.665291 
z" data-index="1" style="visibility: visible; opacity: 1;"></path>

<path fill="#FFFEFF" opacity="1.000000" stroke="none" d="
M447.940002,235.032623 
	C446.918823,203.075119 439.267761,173.376160 424.636932,145.444534 
	C410.003448,117.507851 389.788239,94.409561 364.402588,75.593254 
	C415.806824,44.477047 505.705872,41.066418 572.032898,97.069084 
	C650.448669,163.278702 660.611145,277.521088 600.440613,355.804901 
	C539.190613,435.493073 435.192993,446.639709 364.236206,407.712219 
	C420.323730,363.973511 448.920990,306.908020 447.940002,235.032623 
z" data-index="3" style="visibility: hidden; opacity: 1;"></path>

<path fill="#FBFBFE" opacity="1.000000" stroke="none" d="
M404.051514,245.948639 
	C411.489319,253.386383 418.575226,260.680878 425.926697,267.697113 
	C428.157440,269.826141 428.727234,271.818726 428.017731,274.676086 
	C425.951965,282.995026 424.047211,291.353973 422.101929,299.601379 
	C375.034302,253.001801 328.431091,206.862015 281.505768,160.403305 
	C285.881561,152.675980 290.114075,145.201660 294.883026,136.780029 
	C331.596313,173.493301 367.698944,209.595917 404.051514,245.948639 
z" data-index="5" style="visibility: hidden; opacity: 1;"></path>

<path fill="#FCFCFE" opacity="1.000000" stroke="none" d="
M348.748657,319.251343 
	C362.404755,332.643219 375.811707,345.784271 389.709015,359.406006 
	C383.244965,366.390167 377.643463,372.442322 370.557678,380.098206 
	C369.143799,377.754700 368.399780,375.733521 367.018433,374.347443 
	C334.697357,341.913666 302.267120,309.588470 270.021851,277.079773 
	C267.903290,274.943909 266.191162,271.607239 265.849487,268.649017 
	C264.582825,257.682648 263.969757,246.640823 263.029663,234.582153 
	C292.275085,263.467804 320.387268,291.234192 348.748657,319.251343 
z" data-index="7" style="visibility: hidden; opacity: 1;"></path>

<path fill="#FBFBFE" opacity="1.000000" stroke="none" d="
M369.098328,100.882103 
	C391.551636,122.457848 413.017273,153.111572 413.687134,163.705505 
	C389.486267,139.387024 364.896759,114.678040 340.313477,89.975296 
	C346.549713,83.930397 346.624390,83.827271 353.833374,89.046333 
	C358.950226,92.750740 363.831421,96.780663 369.098328,100.882103 
z" data-index="9" style="visibility: hidden; opacity: 1;"></path>
</svg>